HIERARCHY
ROOT root
{
	OFFSET 0.000000 0.000000 0.000000
	CHANNELS 6 Xposition Yposition Zposition Zrotation Yrotation Xrotation
	JOINT lhip
	{
		OFFSET 0.058581 -0.082280 -0.017664
		CHANNELS 3 Zrotation Yrotation Xrotation
		JOINT lknee
		{
			OFFSET 0.043451 -0.386469 0.008037
			CHANNELS 3 Zrotation Yrotation Xrotation
			JOINT lankle
			{
				OFFSET -0.014790 -0.426874 -0.037428
				CHANNELS 3 Zrotation Yrotation Xrotation
				JOINT ltoe
				{
					OFFSET 0.041054 -0.060286 0.122042
					CHANNELS 3 Zrotation Yrotation Xrotation
					End Site
					{
						OFFSET 0.000000 0.000000 0.000000
					}
				}
			}
		}
	}
	JOINT rhip
	{
		OFFSET -0.060310 -0.090513 -0.013543
		CHANNELS 3 Zrotation Yrotation Xrotation
		JOINT rknee
		{
			OFFSET -0.043257 -0.383688 -0.004843
			CHANNELS 3 Zrotation Yrotation Xrotation
			JOINT rankle
			{
				OFFSET 0.019056 -0.420046 -0.034562
				CHANNELS 3 Zrotation Yrotation Xrotation
				JOINT rtoe
				{
					OFFSET -0.034840 -0.062106 0.130323
					CHANNELS 3 Zrotation Yrotation Xrotation
					End Site
					{
						OFFSET 0.000000 0.000000 0.000000
					}
				}
			}
		}
	}
	JOINT lowerback
	{
		OFFSET 0.004439 0.124404 -0.038385
		CHANNELS 3 Zrotation Yrotation Xrotation
		JOINT upperback
		{
			OFFSET 0.004488 0.137956 0.026820
			CHANNELS 3 Zrotation Yrotation Xrotation
			JOINT chest
			{
				OFFSET -0.002265 0.056032 0.002855
				CHANNELS 3 Zrotation Yrotation Xrotation
				JOINT lowerneck
				{
					OFFSET -0.013390 0.211636 -0.033468
					CHANNELS 3 Zrotation Yrotation Xrotation
					JOINT upperneck
					{
						OFFSET 0.010113 0.088937 0.050410
						CHANNELS 3 Zrotation Yrotation Xrotation
						End Site
						{
							OFFSET 0.000000 0.000000 0.000000
						}
					}
				}
				JOINT lclavicle
				{
					OFFSET 0.071702 0.114000 -0.018898
					CHANNELS 3 Zrotation Yrotation Xrotation
					JOINT lshoulder
					{
						OFFSET 0.122921 0.045205 -0.019046
						CHANNELS 3 Zrotation Yrotation Xrotation
						JOINT lelbow
						{
							OFFSET 0.255332 -0.015649 -0.022946
							CHANNELS 3 Zrotation Yrotation Xrotation
							JOINT lwrist
							{
								OFFSET 0.265709 0.012698 -0.007375
								CHANNELS 3 Zrotation Yrotation Xrotation
								End Site
								{
									OFFSET 0.000000 0.000000 0.000000
								}
							}
						}
					}
				}
				JOINT rclavicle
				{
					OFFSET -0.082954 0.112472 -0.023707
					CHANNELS 3 Zrotation Yrotation Xrotation
					JOINT rshoulder
					{
						OFFSET -0.113228 0.046853 -0.008472
						CHANNELS 3 Zrotation Yrotation Xrotation
						JOINT relbow
						{
							OFFSET -0.260127 -0.014369 -0.031269
							CHANNELS 3 Zrotation Yrotation Xrotation
							JOINT rwrist
							{
								OFFSET -0.269108 0.006794 -0.006027
								CHANNELS 3 Zrotation Yrotation Xrotation
								End Site
								{
									OFFSET 0.000000 0.000000 0.000000
								}
							}
						}
					}
				}
			}
		}
	}
}
MOTION
Frames: 9
Frame Time: 0.033333
-1.542643 2.995928 0.993473 34.305994 1.347264 84.033935 2.974952 5.442362 10.901544 -4.381514 1.363305 -4.345504 1.601814 14.431951 -12.736917 0.000000 -0.000000 0.000000 -0.216408 -4.641944 1.009279 2.020391 -6.946629 13.886948 2.192416 -9.203953 -12.178701 0.000000 -0.000000 0.000000 1.304721 -1.733391 3.749572 0.489911 -2.598169 6.996954 -0.859000 -1.962176 0.630130 2.418248 -0.136959 0.456862 1.486814 0.261226 11.230768 -25.695190 3.109378 3.422316 -54.986071 -3.832177 10.322509 7.238290 -36.186614 3.272464 -2.824541 -10.273110 -6.022084 24.171431 2.874695 2.231082 55.127100 2.378948 14.173820 -8.023163 28.380143 -0.084036 4.934968 8.388263 -9.443532 
-1.541930 2.996013 0.993232 34.456463 1.309892 83.981376 2.911355 5.335517 10.961360 -4.418698 1.340557 -4.353455 1.572692 14.389689 -12.759910 0.000000 -0.000000 0.000000 -0.318805 -4.437639 1.194590 2.132753 -6.926067 13.716953 2.572502 -9.628927 -12.302161 0.000000 -0.000000 0.000000 1.410751 -1.887990 3.679172 0.418096 -2.538792 6.895974 -0.875821 -2.008067 0.849376 2.431224 -0.096777 0.215140 1.363633 0.214380 11.850895 -25.651630 2.919617 3.344573 -55.398538 -4.501790 10.292587 7.451607 -36.517425 3.141761 -3.018145 -10.475857 -5.892241 24.063439 2.877123 2.297160 55.238581 2.629555 14.116724 -8.106896 28.527491 -0.277801 5.126671 8.365057 -9.172511 
-1.541303 2.996008 0.993117 34.472104 1.278724 83.973166 2.861637 5.351367 11.070442 -4.452599 1.345515 -4.475264 1.576731 14.341427 -12.739379 0.000000 -0.000000 0.000000 -0.395508 -4.424902 1.284045 2.120615 -6.957776 13.621440 2.662035 -9.722315 -12.366445 0.000000 -0.000000 0.000000 1.528603 -1.961661 3.630357 0.396275 -2.541560 6.824703 -0.913957 -2.049960 0.859900 2.303967 -0.012347 0.217727 1.248736 0.351526 12.156259 -25.717751 2.753591 3.202425 -55.740009 -4.877065 10.376869 7.534693 -36.540504 3.143902 -2.924743 -10.555747 -5.975023 24.034866 2.869929 2.323420 55.251448 2.790228 14.178227 -8.095647 28.531741 -0.255564 5.014019 8.397225 -9.144666 
-1.540671 2.996098 0.993070 34.442986 1.230721 84.011102 2.772368 5.400573 11.147305 -4.476700 1.344765 -4.621816 1.605527 14.338947 -12.705715 0.000000 -0.000000 0.000000 -0.490999 -4.413214 1.288669 2.127598 -6.908381 13.593283 2.686631 -9.727897 -12.342509 0.000000 -0.000000 0.000000 1.592525 -2.015711 3.557307 0.416741 -2.589626 6.781831 -0.925328 -2.071910 0.768654 2.134679 0.022896 0.255229 1.153106 0.611804 12.489924 -25.854547 2.580580 3.026700 -56.242742 -5.244565 10.615201 7.639848 -35.978478 3.099150 -2.944459 -10.535651 -5.876685 24.046716 2.845971 2.297541 55.287285 2.888049 14.295256 -8.108963 28.337274 -0.332523 5.084908 8.384218 -9.112093 
-1.540360 2.996238 0.993020 34.438263 1.221475 84.041585 2.734253 5.425767 11.142813 -4.476629 1.335159 -4.650292 1.613773 14.338952 -12.691116 0.000000 -0.000000 0.000000 -0.524979 -4.410107 1.277932 2.135088 -6.874211 13.568434 2.691178 -9.747747 -12.326906 0.000000 -0.000000 0.000000 1.638623 -2.056955 3.525239 0.440865 -2.641173 6.768228 -0.937991 -2.083127 0.723391 2.052979 0.049595 0.246272 1.095606 0.733011 12.615069 -25.921344 2.474026 2.904050 -56.597144 -5.436999 10.774596 7.672421 -35.378079 3.060734 -2.948923 -10.427407 -5.750100 24.058845 2.827225 2.256555 55.340923 2.919049 14.356146 -8.138082 28.182167 -0.424069 5.108607 8.356301 -9.027523 
-1.540040 2.996323 0.992905 34.394203 1.236505 84.073064 2.724030 5.460393 11.145783 -4.480634 1.349587 -4.680977 1.608319 14.346089 -12.685699 0.000000 -0.000000 0.000000 -0.538241 -4.398352 1.260474 2.153641 -6.820047 13.554945 2.703112 -9.760214 -12.322398 0.000000 -0.000000 0.000000 1.710603 -2.116699 3.462434 0.468621 -2.700585 6.760976 -0.958101 -2.114488 0.750486 2.002289 0.101896 0.167261 1.007382 0.835713 12.710915 -25.979863 2.366219 2.799721 -57.065708 -5.603484 10.943768 7.719273 -34.561573 3.064156 -3.075667 -10.282715 -5.576270 24.049175 2.816404 2.177118 55.432086 3.005546 14.451226 -8.097297 27.911971 -0.409316 5.223979 8.279290 -8.972005 
-1.539815 2.996261 0.992803 34.277793 1.261048 84.105864 2.733451 5.520075 11.161428 -4.491326 1.373914 -4.728892 1.600131 14.394752 -12.677355 0.000000 -0.000000 0.000000 -0.525302 -4.357369 1.229816 2.169918 -6.741413 13.549325 2.706028 -9.765860 -12.319546 0.000000 -0.000000 0.000000 1.766589 -2.202250 3.460260 0.493474 -2.738525 6.695200 -0.979577 -2.120938 0.778656 1.989444 0.148232 0.033263 0.900709 0.966877 12.801521 -26.073875 2.414543 2.692509 -57.406203 -5.624134 11.094528 7.655348 -33.810381 3.217978 -3.185102 -10.163049 -5.415783 24.087177 2.739096 2.069031 55.494411 3.086562 14.555114 -8.024434 27.624969 -0.371009 5.221621 8.231610 -8.903680 
-1.539627 2.996062 0.992689 34.074166 1.289357 84.142966 2.742454 5.602323 11.201434 -4.487183 1.427595 -4.804861 1.601296 14.464292 -12.663556 0.000000 -0.000000 0.000000 -0.499874 -4.296992 1.193347 2.192047 -6.617971 13.538975 2.718385 -9.755063 -12.306123 0.000000 -0.000000 0.000000 1.801451 -2.253908 3.404272 0.528669 -2.757997 6.700327 -0.996919 -2.098862 0.800779 1.994739 0.175421 -0.018780 0.809835 1.082154 12.797362 -26.216952 2.518595 2.590094 -57.622138 -5.527292 11.231819 7.538435 -33.079517 3.412012 -3.377830 -10.017162 -5.167894 24.165871 2.620277 1.964211 55.535335 3.127657 14.623070 -7.972731 27.363476 -0.393935 5.238808 8.181073 -8.807551 
-1.539454 2.995785 0.992597 33.860653 1.319410 84.173399 2.752201 5.691641 11.222994 -4.471100 1.487117 -4.848478 1.593245 14.527894 -12.671875 0.000000 -0.000000 0.000000 -0.476668 -4.253129 1.150180 2.220164 -6.492349 13.543099 2.730177 -9.729301 -12.299493 0.000000 -0.000000 0.000000 1.798591 -2.262247 3.223559 0.592074 -2.782261 6.856008 -0.996503 -2.097704 0.903383 2.004595 0.258171 -0.096025 0.692994 1.134137 12.676754 -26.356960 2.566424 2.454917 -57.814078 -5.439461 11.345712 7.400862 -32.182156 3.558108 -3.562875 -9.865483 -4.793584 24.253825 2.482841 1.823991 55.544115 3.195895 14.627088 -7.907255 27.134812 -0.452374 5.241591 8.159735 -8.619058 
